<svg width="24" height="24" viewBox="0 0 24 24" fill="none" xmlns="http://www.w3.org/2000/svg">
<path d="M9.13221 18.1427L9.13221 18.1427L9.13667 18.1446L9.7722 18.4137L10.1662 20.1545L10.2896 20.7H10.8489H12.951H13.5103L13.6337 20.1544L14.0277 18.4126L14.6632 18.1436L14.6646 18.143C15.1318 17.9441 15.5756 17.6966 15.9883 17.4046C15.9884 17.4046 15.9885 17.4045 15.9886 17.4044L16.5572 17.0031L18.3421 17.5521L18.8669 17.7135L19.1487 17.2422L20.1997 15.4842L20.4986 14.9844L20.0614 14.5996L18.6968 13.3983L18.7711 12.75C18.7711 12.7499 18.7711 12.7498 18.7711 12.7497C18.8282 12.2541 18.8282 11.7539 18.7711 11.2583C18.7711 11.2582 18.7711 11.2581 18.7711 11.258L18.6968 10.6094L20.0629 9.40509L20.4995 9.02019L20.2007 8.52069L19.1486 6.76169L18.8668 6.29055L18.3421 6.45193L16.5572 7.00088L15.9897 6.60037C15.9894 6.60015 15.9891 6.59992 15.9888 6.5997C15.5767 6.307 15.1337 6.05813 14.6674 5.85717L14.6674 5.85715L14.6632 5.85538L14.0277 5.58634L13.6337 3.84549L13.5103 3.3H12.951H10.8489H10.2901L10.1663 3.84491L9.77048 5.58715L9.13674 5.85535L9.13625 5.85557C8.90848 5.95217 8.68624 6.06074 8.47053 6.18083C8.24302 6.30647 8.02296 6.44458 7.81143 6.59449C7.81122 6.59464 7.81101 6.59479 7.8108 6.59493L7.24275 6.99584L5.45892 6.44696L4.9337 6.28535L4.65202 6.75718L3.59891 8.52118L3.30038 9.02123L3.73778 9.40574L5.10206 10.6051L5.02777 11.254C5.02776 11.254 5.02775 11.2541 5.02774 11.2542C5.02773 11.2542 5.02773 11.2543 5.02772 11.2544C4.97071 11.7499 4.97072 12.2501 5.02773 12.7457C5.02774 12.7458 5.02775 12.7459 5.02777 12.746L5.10206 13.3943L3.73742 14.5956L3.30031 14.9804L3.59914 15.4802L4.65017 17.2382L4.93197 17.7095L5.45685 17.548L7.24044 16.9992L7.80678 17.3994C7.80702 17.3996 7.80725 17.3998 7.80749 17.3999C8.02007 17.5511 8.24147 17.6901 8.47056 17.8162C8.68517 17.9361 8.90602 18.0451 9.13221 18.1427Z" stroke="#666666" stroke-width="1.4"/>
<circle cx="12" cy="12" r="3.3" stroke="#666666" stroke-width="1.4"/>
</svg>
