<svg width="30" height="30" viewBox="0 0 30 30" fill="none" xmlns="http://www.w3.org/2000/svg">
<path d="M18.125 14.6875C18.9879 14.6875 19.6875 13.9879 19.6875 13.125C19.6875 12.2621 18.9879 11.5625 18.125 11.5625C17.2621 11.5625 16.5625 12.2621 16.5625 13.125C16.5625 13.9879 17.2621 14.6875 18.125 14.6875Z" fill="#0081FF"/>
<path d="M11.875 14.6875C12.7379 14.6875 13.4375 13.9879 13.4375 13.125C13.4375 12.2621 12.7379 11.5625 11.875 11.5625C11.0121 11.5625 10.3125 12.2621 10.3125 13.125C10.3125 13.9879 11.0121 14.6875 11.875 14.6875Z" fill="#0081FF"/>
<path d="M28.675 15.825C28.725 15.5625 28.75 15.2875 28.75 15C28.75 14.7125 28.725 14.4375 28.675 14.175C28.3625 12.2875 26.975 10.75 25.1625 10.2125C24.5 8.8125 23.5625 7.5875 22.425 6.575C20.45 4.8125 17.85 3.75 15 3.75C12.15 3.75 9.55 4.8125 7.575 6.575C6.425 7.5875 5.4875 8.825 4.8375 10.2125C3.025 10.75 1.6375 12.275 1.325 14.175C1.275 14.4375 1.25 14.7125 1.25 15C1.25 15.2875 1.275 15.5625 1.325 15.825C1.6375 17.7125 3.025 19.25 4.8375 19.7875C5.4875 21.175 6.425 22.4 7.55 23.4C9.525 25.175 12.1375 26.25 15 26.25C17.8625 26.25 20.475 25.175 22.4625 23.4C23.5875 22.4 24.525 21.1625 25.175 19.7875C26.975 19.25 28.3625 17.725 28.675 15.825ZM23.75 17.5C23.625 17.5 23.5125 17.475 23.3875 17.4625C23.1375 18.3 22.775 19.075 22.3125 19.7875C20.75 22.175 18.0625 23.75 15 23.75C11.9375 23.75 9.25 22.175 7.6875 19.7875C7.225 19.075 6.8625 18.3 6.6125 17.4625C6.4875 17.475 6.375 17.5 6.25 17.5C4.875 17.5 3.75 16.375 3.75 15C3.75 13.625 4.875 12.5 6.25 12.5C6.375 12.5 6.4875 12.525 6.6125 12.5375C6.8625 11.7 7.225 10.925 7.6875 10.2125C9.25 7.825 11.9375 6.25 15 6.25C18.0625 6.25 20.75 7.825 22.3125 10.2125C22.775 10.925 23.1375 11.7 23.3875 12.5375C23.5125 12.525 23.625 12.5 23.75 12.5C25.125 12.5 26.25 13.625 26.25 15C26.25 16.375 25.125 17.5 23.75 17.5ZM9.375 17.5C10.325 19.7125 12.4875 21.25 15 21.25C17.5125 21.25 19.675 19.7125 20.625 17.5H9.375Z" fill="#0081FF"/>
</svg>
