<svg width="30" height="30" viewBox="0 0 30 30" fill="none" xmlns="http://www.w3.org/2000/svg">
<path d="M23.65 7.5125C23.4 6.775 22.7 6.25 21.875 6.25H8.125C7.3 6.25 6.6125 6.775 6.35 7.5125L3.75 15V25C3.75 25.6875 4.3125 26.25 5 26.25H6.25C6.9375 26.25 7.5 25.6875 7.5 25V23.75H22.5V25C22.5 25.6875 23.0625 26.25 23.75 26.25H25C25.6875 26.25 26.25 25.6875 26.25 25V15L23.65 7.5125ZM8.125 20C7.0875 20 6.25 19.1625 6.25 18.125C6.25 17.0875 7.0875 16.25 8.125 16.25C9.1625 16.25 10 17.0875 10 18.125C10 19.1625 9.1625 20 8.125 20ZM21.875 20C20.8375 20 20 19.1625 20 18.125C20 17.0875 20.8375 16.25 21.875 16.25C22.9125 16.25 23.75 17.0875 23.75 18.125C23.75 19.1625 22.9125 20 21.875 20ZM6.25 13.75L8.125 8.125H21.875L23.75 13.75H6.25Z" fill="#0081FF"/>
</svg>
