<svg width="30" height="30" viewBox="0 0 30 30" fill="none" xmlns="http://www.w3.org/2000/svg">
<path d="M15.6874 13.625C12.8499 12.8875 11.9374 12.125 11.9374 10.9375C11.9374 9.575 13.1999 8.625 15.3124 8.625C17.5374 8.625 18.3624 9.6875 18.4374 11.25H21.1999C21.1124 9.1 19.7999 7.125 17.1874 6.4875V3.75H13.4374V6.45C11.0124 6.975 9.0624 8.55 9.0624 10.9625C9.0624 13.85 11.4499 15.2875 14.9374 16.125C18.0624 16.875 18.6874 17.975 18.6874 19.1375C18.6874 20 18.0749 21.375 15.3124 21.375C12.7374 21.375 11.7249 20.225 11.5874 18.75H8.8374C8.9874 21.4875 11.0374 23.025 13.4374 23.5375V26.25H17.1874V23.5625C19.6249 23.1 21.5624 21.6875 21.5624 19.125C21.5624 15.575 18.5249 14.3625 15.6874 13.625Z" fill="#0081FF"/>
</svg>
