<svg width="16" height="16" viewBox="0 0 16 16" fill="none" xmlns="http://www.w3.org/2000/svg">
<path d="M3.66674 3.33334H12.3334C12.4294 3.36702 12.5164 3.42222 12.5878 3.49472C12.6592 3.56722 12.7131 3.6551 12.7452 3.75162C12.7774 3.84815 12.7871 3.95076 12.7735 4.05159C12.7598 4.15242 12.7233 4.2488 12.6667 4.33334L9.3334 8.00001V12.6667L6.66674 10.6667V8.00001L3.3334 4.33334C3.2768 4.2488 3.2403 4.15242 3.22669 4.05159C3.21309 3.95076 3.22274 3.84815 3.25491 3.75162C3.28709 3.6551 3.34093 3.56722 3.41231 3.49472C3.4837 3.42222 3.57073 3.36702 3.66674 3.33334Z" stroke="#DADCE0" stroke-width="1.33333" stroke-linecap="round" stroke-linejoin="round"/>
</svg>
