<svg width="126" height="26" viewBox="0 0 126 26" fill="none" xmlns="http://www.w3.org/2000/svg">
<g clip-path="url(#clip0_2_20704)">
<path d="M35.2111 25.9898H31.2443C30.8927 25.9898 30.5555 25.8528 30.3068 25.609C30.0582 25.3652 29.9185 25.0346 29.9185 24.6898C29.9185 24.345 30.0582 24.0144 30.3068 23.7706C30.5555 23.5268 30.8927 23.3898 31.2443 23.3898H35.2111C35.4474 23.3898 35.6742 23.2985 35.8423 23.1356C36.0104 22.9727 36.1062 22.7514 36.1089 22.5197C36.1036 22.3459 36.03 22.1807 35.9036 22.0587C35.7772 21.9367 35.6077 21.8671 35.4304 21.8646H33.1233C32.6572 21.8659 32.1954 21.7772 31.7643 21.6036C31.3331 21.4299 30.9411 21.1747 30.6105 20.8525C30.28 20.5303 30.0174 20.1473 29.8378 19.7256C29.6581 19.3038 29.565 18.8516 29.5636 18.3945C29.5626 17.9644 29.6489 17.5383 29.8174 17.1412C29.9858 16.744 30.2331 16.3837 30.5449 16.0811C31.1729 15.4793 32.0156 15.1414 32.8937 15.1394H36.4012C36.7528 15.1394 37.09 15.2764 37.3387 15.5202C37.5873 15.764 37.727 16.0946 37.727 16.4394C37.727 16.7842 37.5873 17.1149 37.3387 17.3586C37.09 17.6024 36.7528 17.7394 36.4012 17.7394H32.8623C32.7742 17.738 32.6867 17.754 32.605 17.7865C32.5233 17.8189 32.4491 17.8671 32.3868 17.9282C32.3245 17.9893 32.2753 18.0621 32.2422 18.1422C32.2091 18.2223 32.1928 18.3081 32.1942 18.3945C32.197 18.6244 32.2913 18.8442 32.4571 19.0068C32.623 19.1694 32.8471 19.2619 33.0816 19.2646H35.3991C36.2814 19.2646 37.1279 19.6069 37.7538 20.2167C38.3797 20.8266 38.734 21.6545 38.7396 22.5197C38.7341 23.4366 38.3609 24.3146 37.7007 24.9639C37.0405 25.6132 36.1462 25.9817 35.2111 25.9898Z" fill="white"/>
<path d="M50.2435 15.1394H49.6171C48.6856 15.1382 47.7862 15.4734 47.0908 16.0811C46.3902 15.4752 45.4883 15.1404 44.5541 15.1394H43.9278C42.9145 15.1394 41.9426 15.5341 41.2261 16.2367C40.5096 16.9393 40.1071 17.8922 40.1071 18.8859V24.4646C40.1071 24.8012 40.2434 25.1241 40.4862 25.3621C40.7289 25.6002 41.0582 25.7339 41.4015 25.7339C41.7448 25.7339 42.0741 25.6002 42.3168 25.3621C42.5596 25.1241 42.696 24.8012 42.696 24.4646V18.8859C42.696 18.5655 42.8257 18.2583 43.0568 18.0317C43.2878 17.8052 43.6011 17.678 43.9278 17.678H44.5541C44.7168 17.6766 44.8781 17.7069 45.0287 17.767C45.1794 17.8271 45.3164 17.9158 45.4319 18.0281C45.5474 18.1404 45.6391 18.274 45.7016 18.4213C45.7642 18.5685 45.7964 18.7264 45.7964 18.8859V24.4646C45.7964 24.8012 45.9328 25.1241 46.1755 25.3621C46.4183 25.6002 46.7475 25.7339 47.0908 25.7339C47.4341 25.7339 47.7634 25.6002 48.0062 25.3621C48.2489 25.1241 48.3853 24.8012 48.3853 24.4646V18.8859C48.3853 18.5655 48.5151 18.2583 48.7461 18.0317C48.9771 17.8052 49.2904 17.678 49.6171 17.678H50.2435C50.4061 17.6766 50.5674 17.7069 50.718 17.767C50.8687 17.8271 51.0057 17.9158 51.1212 18.0281C51.2367 18.1404 51.3284 18.274 51.3909 18.4213C51.4535 18.5685 51.4857 18.7264 51.4857 18.8859V24.4646C51.4857 24.8012 51.6221 25.1241 51.8648 25.3621C52.1076 25.6002 52.4368 25.7339 52.7801 25.7339C53.1235 25.7339 53.4527 25.6002 53.6954 25.3621C53.9382 25.1241 54.0746 24.8012 54.0746 24.4646V18.8859C54.0718 17.8913 53.667 16.9384 52.9488 16.2361C52.2306 15.5338 51.2577 15.1394 50.2435 15.1394Z" fill="white"/>
<path d="M68.5744 25.7338C68.2274 25.7366 67.8933 25.6047 67.6449 25.367C67.3966 25.1292 67.2542 24.8048 67.2487 24.4645V19.2236C67.2597 18.1992 67.6846 17.2208 68.4302 16.5032C69.1758 15.7855 70.1812 15.3871 71.226 15.3953H72.2699C72.4503 15.3794 72.6322 15.4005 72.8039 15.4574C72.9755 15.5142 73.1333 15.6054 73.267 15.7253C73.4007 15.8452 73.5075 15.9911 73.5806 16.1537C73.6536 16.3163 73.6914 16.492 73.6914 16.6697C73.6914 16.8473 73.6536 17.023 73.5806 17.1856C73.5075 17.3482 73.4007 17.4941 73.267 17.614C73.1333 17.7339 72.9755 17.8251 72.8039 17.882C72.6322 17.9388 72.4503 17.9599 72.2699 17.9441H71.226C71.0532 17.9427 70.8819 17.9747 70.7218 18.0383C70.5617 18.1019 70.4159 18.1958 70.2928 18.3146C70.1697 18.4334 70.0717 18.5748 70.0043 18.7308C69.9369 18.8868 69.9016 19.0542 69.9002 19.2236V24.4645C69.8947 24.8048 69.7523 25.1292 69.5039 25.367C69.2556 25.6047 68.9215 25.7366 68.5744 25.7338Z" fill="white"/>
<path d="M79.6608 23.1235H78.7735C78.4265 23.1182 78.0957 22.9785 77.8532 22.735C77.6108 22.4915 77.4763 22.1639 77.4791 21.8236V17.7291H79.6608C79.9935 17.7002 80.303 17.5501 80.5285 17.3086C80.754 17.067 80.879 16.7514 80.879 16.424C80.879 16.0965 80.754 15.7809 80.5285 15.5393C80.303 15.2978 79.9935 15.1477 79.6608 15.1188H77.4791V13.5936C77.4952 13.4181 77.4738 13.2411 77.4164 13.0741C77.3589 12.907 77.2666 12.7535 77.1453 12.6234C77.024 12.4933 76.8764 12.3894 76.7119 12.3183C76.5474 12.2472 76.3696 12.2104 76.1898 12.2104C76.01 12.2104 75.8322 12.2472 75.6677 12.3183C75.5032 12.3894 75.3556 12.4933 75.2343 12.6234C75.1131 12.7535 75.0207 12.907 74.9633 13.0741C74.9058 13.2411 74.8845 13.4181 74.9006 13.5936V21.7826C74.8867 22.8044 75.2866 23.7898 76.0126 24.5229C76.7386 25.2559 77.7315 25.6767 78.7735 25.6928H79.6608C79.9935 25.6639 80.303 25.5139 80.5285 25.2723C80.754 25.0308 80.879 24.7152 80.879 24.3877C80.879 24.0603 80.754 23.7447 80.5285 23.5031C80.303 23.2615 79.9935 23.1115 79.6608 23.0826V23.1235Z" fill="white"/>
<path d="M65.9334 25.7338H60.6616C59.619 25.7338 58.5997 25.4307 57.7328 24.8627C56.8659 24.2947 56.1902 23.4873 55.7912 22.5428C55.3922 21.5982 55.2878 20.5588 55.4912 19.5561C55.6946 18.5533 56.1967 17.6323 56.9339 16.9093C57.6712 16.1864 58.6105 15.694 59.6332 15.4946C60.6558 15.2951 61.7158 15.3975 62.679 15.7888C63.6423 16.18 64.4657 16.8426 65.045 17.6927C65.6242 18.5427 65.9334 19.5422 65.9334 20.5646V25.7338ZM60.6616 17.985C60.0389 18.0799 59.4713 18.39 59.0614 18.8593C58.6514 19.3286 58.426 19.9262 58.426 20.5441C58.426 21.162 58.6514 21.7596 59.0614 22.2289C59.4713 22.6982 60.0389 23.0083 60.6616 23.1032H63.3027V20.5134C63.2864 19.8372 63.0009 19.1942 62.5074 18.7217C62.0138 18.2492 61.3514 17.9849 60.6616 17.985Z" fill="white"/>
<path d="M97.1359 11.1575C97.1332 11.3547 97.0907 11.5493 97.011 11.7303C96.9312 11.9113 96.8157 12.075 96.6711 12.212C96.5265 12.349 96.3557 12.4566 96.1685 12.5286C95.9814 12.6006 95.7815 12.6356 95.5805 12.6315H88.8473V16.2859H94.9228C95.1188 16.2693 95.3161 16.2929 95.5023 16.3551C95.6885 16.4173 95.8595 16.5168 96.0044 16.6472C96.1493 16.7776 96.265 16.9361 96.3441 17.1127C96.4233 17.2892 96.4642 17.48 96.4642 17.6729C96.4642 17.8657 96.4233 18.0565 96.3441 18.2331C96.265 18.4096 96.1493 18.5681 96.0044 18.6985C95.8595 18.8289 95.6885 18.9284 95.5023 18.9906C95.3161 19.0528 95.1188 19.0764 94.9228 19.0599H88.8473V22.8063H95.6223C96.0237 22.8063 96.4087 22.9627 96.6926 23.2411C96.9764 23.5194 97.1359 23.897 97.1359 24.2906C97.1359 24.6843 96.9764 25.0618 96.6926 25.3401C96.4087 25.6185 96.0237 25.7748 95.6223 25.7748H87.9286C87.6201 25.7956 87.3107 25.7518 87.0207 25.6464C86.7308 25.541 86.467 25.3764 86.2469 25.1635C86.0268 24.9505 85.8553 24.6942 85.7439 24.4113C85.6325 24.1285 85.5837 23.8256 85.6007 23.5229V11.9355C85.5822 11.6319 85.6298 11.3279 85.7406 11.0438C85.8513 10.7598 86.0225 10.5021 86.2428 10.288C86.4631 10.0739 86.7274 9.90836 87.0181 9.80236C87.3088 9.69635 87.6192 9.65236 87.9286 9.67328H95.5805C95.782 9.67057 95.9821 9.7068 96.1693 9.77993C96.3566 9.85306 96.5273 9.96164 96.6717 10.0995C96.8162 10.2373 96.9315 10.4017 97.0111 10.5832C97.0908 10.7648 97.1332 10.9599 97.1359 11.1575Z" fill="white"/>
<path d="M111.448 14.9142C111.53 15.9186 111.252 16.9196 110.661 17.7439C110.07 18.5683 109.203 19.1641 108.212 19.4283L111.448 23.1236C111.734 23.4312 111.89 23.8334 111.886 24.2496C111.884 24.674 111.71 25.0802 111.403 25.3794C111.096 25.6785 110.68 25.8465 110.247 25.8464C109.99 25.8518 109.735 25.796 109.504 25.6837C109.273 25.5714 109.073 25.406 108.922 25.2016L105.404 20.9024C105.273 20.6799 105.084 20.4954 104.856 20.3677C104.629 20.24 104.371 20.1737 104.109 20.1756H102.168V24.1984C102.168 24.4094 102.125 24.6184 102.043 24.8134C101.96 25.0084 101.84 25.1856 101.687 25.3348C101.535 25.484 101.355 25.6024 101.156 25.6832C100.957 25.7639 100.744 25.8055 100.529 25.8055C100.313 25.8055 100.1 25.7639 99.9014 25.6832C99.7025 25.6024 99.5219 25.484 99.3697 25.3348C99.2175 25.1856 99.0968 25.0084 99.0144 24.8134C98.932 24.6184 98.8896 24.4094 98.8896 24.1984V11.7205C98.8753 11.4426 98.9217 11.165 99.0256 10.9061C99.1295 10.6473 99.2885 10.4131 99.4921 10.2193C99.6956 10.0256 99.939 9.87662 100.206 9.78244C100.473 9.68826 100.757 9.65103 101.04 9.67323H105.79C109.13 9.67323 111.448 11.7307 111.448 14.9142ZM102.168 12.5701V17.2582H105.393C107.481 17.2582 108.149 16.3063 108.149 14.9449C108.176 14.6118 108.127 14.2771 108.004 13.9655C107.881 13.654 107.687 13.3736 107.439 13.1454C107.19 12.9171 106.892 12.7469 106.566 12.6473C106.241 12.5476 105.897 12.5213 105.56 12.5701H102.168Z" fill="white"/>
<path d="M126 15.0574C126 18.5173 123.505 20.4826 120.081 20.4826H116.782V24.1984C116.8 24.4195 116.772 24.6419 116.698 24.8516C116.624 25.0613 116.506 25.2537 116.353 25.4167C116.199 25.5797 116.013 25.7097 115.806 25.7987C115.599 25.8877 115.375 25.9336 115.149 25.9336C114.922 25.9336 114.699 25.8877 114.491 25.7987C114.284 25.7097 114.098 25.5797 113.944 25.4167C113.791 25.2537 113.674 25.0613 113.6 24.8516C113.526 24.6419 113.497 24.4195 113.515 24.1984V11.7204C113.499 11.4422 113.544 11.1638 113.647 10.9041C113.751 10.6445 113.91 10.4096 114.114 10.2155C114.317 10.0214 114.562 9.87244 114.829 9.77887C115.097 9.68531 115.382 9.64928 115.665 9.67319H120.311C121.053 9.62742 121.797 9.73379 122.495 9.98558C123.193 10.2374 123.83 10.629 124.366 11.1356C124.901 11.6421 125.323 12.2525 125.604 12.9277C125.886 13.6029 126.02 14.3283 126 15.0574ZM116.782 12.57V17.5244H120.05C121.971 17.5244 122.764 16.5007 122.764 15.0574C122.764 13.6141 121.824 12.57 119.799 12.57H116.782Z" fill="white"/>
<path d="M13.2472 3.17323L0 0V25.9897H13.2472C14.9878 25.9911 16.7115 25.6561 18.3199 25.0039C19.9284 24.3517 21.3899 23.3951 22.6212 22.1888C23.8524 20.9824 24.8291 19.55 25.4955 17.9733C26.1619 16.3967 26.5049 14.7067 26.5049 13V0L13.2472 3.17323Z" fill="#2962FF"/>
<path d="M0 6.13159V25.9899H7.99636C9.49271 22.3037 9.49851 18.1967 8.01257 14.5065C6.52664 10.8163 3.66092 7.82098 0 6.13159Z" fill="#0D47A1"/>
<path d="M13.3516 9.49914C13.3516 10.6309 13.0093 11.7372 12.3681 12.6782C11.7269 13.6191 10.8156 14.3525 9.74926 14.7856C8.68297 15.2187 7.50964 15.332 6.37767 15.1112C5.24571 14.8904 4.20592 14.3455 3.38981 13.5452C2.57371 12.745 2.01795 11.7254 1.79279 10.6154C1.56763 9.50548 1.6832 8.35499 2.12487 7.30942C2.56655 6.26385 3.31448 5.37018 4.27412 4.74143C5.23375 4.11268 6.36196 3.7771 7.51611 3.7771C9.06377 3.7771 10.548 4.37995 11.6424 5.45304C12.7368 6.52614 13.3516 7.98156 13.3516 9.49914Z" fill="white"/>
<path d="M9.11333 9.49919C9.13115 9.71482 9.10324 9.93173 9.03133 10.1362C8.95941 10.3408 8.84505 10.5284 8.69548 10.6875C8.54592 10.8465 8.36439 10.9734 8.16231 11.0602C7.96024 11.147 7.74199 11.1919 7.52137 11.1919C7.30075 11.1919 7.08254 11.147 6.88046 11.0602C6.67838 10.9734 6.49683 10.8465 6.34726 10.6875C6.19769 10.5284 6.08336 10.3408 6.01145 10.1362C5.93953 9.93173 5.91159 9.71482 5.92941 9.49919C5.96183 9.10701 6.14359 8.74117 6.43856 8.47442C6.73354 8.20767 7.12011 8.05957 7.52137 8.05957C7.92264 8.05957 8.3092 8.20767 8.60418 8.47442C8.89915 8.74117 9.08091 9.10701 9.11333 9.49919Z" fill="#0D47A1"/>
<path d="M24.8137 9.49915C24.8137 10.6313 24.4712 11.738 23.8296 12.6792C23.1879 13.6204 22.2759 14.3538 21.209 14.7866C20.1421 15.2194 18.9682 15.3321 17.836 15.1105C16.7037 14.8889 15.664 14.3429 14.8483 13.5416C14.0326 12.7404 13.4777 11.7198 13.2537 10.6092C13.0297 9.49854 13.1467 8.34769 13.59 7.30231C14.0333 6.25692 14.7829 5.36399 15.7439 4.73647C16.7049 4.10896 17.8341 3.77508 18.9887 3.77711C19.7546 3.77711 20.5129 3.92517 21.2203 4.21285C21.9277 4.50054 22.5703 4.9222 23.1113 5.45368C23.6524 5.98515 24.0812 6.61601 24.3733 7.31018C24.6655 8.00435 24.8151 8.74821 24.8137 9.49915Z" fill="white"/>
<path d="M20.5754 9.49929C20.5775 9.8099 20.4853 10.1141 20.3106 10.3732C20.1359 10.6323 19.8866 10.8347 19.5943 10.9545C19.302 11.0743 18.98 11.1061 18.6692 11.046C18.3584 10.9859 18.0729 10.8365 17.8489 10.6169C17.6249 10.3973 17.4726 10.1173 17.4113 9.81252C17.35 9.50776 17.3825 9.19203 17.5047 8.90544C17.6268 8.61885 17.8332 8.37436 18.0974 8.20305C18.3617 8.03174 18.6719 7.94137 18.9887 7.94339C19.4087 7.94608 19.8107 8.11086 20.1077 8.40207C20.4046 8.69328 20.5727 9.08746 20.5754 9.49929Z" fill="#0D47A1"/>
</g>
<defs>
<clipPath id="clip0_2_20704">
<rect width="126" height="26" fill="white"/>
</clipPath>
</defs>
</svg>
