<svg width="16" height="16" viewBox="0 0 16 16" fill="none" xmlns="http://www.w3.org/2000/svg">
<path d="M11.3333 11.3333H12.6667C13.0203 11.3333 13.3594 11.1929 13.6095 10.9428C13.8595 10.6928 14 10.3536 14 10V7.33333C14 6.97971 13.8595 6.64057 13.6095 6.39052C13.3594 6.14048 13.0203 6 12.6667 6H3.33333C2.97971 6 2.64057 6.14048 2.39052 6.39052C2.14048 6.64057 2 6.97971 2 7.33333V10C2 10.3536 2.14048 10.6928 2.39052 10.9428C2.64057 11.1929 2.97971 11.3333 3.33333 11.3333H4.66667" stroke="#424242" stroke-linecap="round" stroke-linejoin="round"/>
<path d="M11.3332 6V3.33333C11.3332 2.97971 11.1927 2.64057 10.9426 2.39052C10.6926 2.14048 10.3535 2 9.99984 2H5.99984C5.64622 2 5.30708 2.14048 5.05703 2.39052C4.80698 2.64057 4.6665 2.97971 4.6665 3.33333V6" stroke="#424242" stroke-linecap="round" stroke-linejoin="round"/>
<path d="M9.99984 8.66675H5.99984C5.26346 8.66675 4.6665 9.2637 4.6665 10.0001V12.6667C4.6665 13.4031 5.26346 14.0001 5.99984 14.0001H9.99984C10.7362 14.0001 11.3332 13.4031 11.3332 12.6667V10.0001C11.3332 9.2637 10.7362 8.66675 9.99984 8.66675Z" stroke="#424242" stroke-linecap="round" stroke-linejoin="round"/>
</svg>
