<svg width="10" height="9" viewBox="0 0 10 9" fill="none" xmlns="http://www.w3.org/2000/svg">
<path d="M9.9235 7.94513L5.49058 0.283502C5.27267 -0.0931987 4.72779 -0.0931987 4.50982 0.283502L0.0769611 7.94513C-0.141005 8.32177 0.131437 8.79268 0.567307 8.79268H9.43316C9.86902 8.79268 10.1415 8.32177 9.9235 7.94513ZM5.0863 7.90303C5.00133 7.91654 4.91436 7.90977 4.83251 7.88328C4.75067 7.85678 4.67627 7.81132 4.61543 7.75061C4.55459 7.68989 4.50903 7.61566 4.48248 7.53399C4.45592 7.45232 4.44914 7.36553 4.46268 7.28074C4.49779 7.05211 4.6851 6.86526 4.91403 6.83035C4.99899 6.81687 5.08594 6.82366 5.16777 6.85016C5.24959 6.87666 5.32397 6.92212 5.3848 6.98282C5.44563 7.04352 5.49119 7.11774 5.51775 7.19939C5.5443 7.28104 5.5511 7.3678 5.53759 7.45258C5.50274 7.6809 5.31543 7.868 5.0863 7.90303ZM5.61915 3.15768L5.32452 6.25173C5.31129 6.39054 5.21795 6.51608 5.08254 6.54967C5.03703 6.5615 4.98949 6.56333 4.9432 6.55504C4.89691 6.54674 4.85298 6.52851 4.81445 6.50161C4.77591 6.47472 4.74369 6.43979 4.72 6.39925C4.69631 6.35871 4.68173 6.31352 4.67726 6.2668L4.38382 3.18226C4.35135 2.84128 4.58943 2.51919 4.93071 2.48265C5.02257 2.47238 5.11558 2.48267 5.20296 2.51278C5.29034 2.5429 5.36988 2.59207 5.43581 2.65673C5.50174 2.72139 5.55239 2.79991 5.58407 2.88657C5.61576 2.97323 5.62767 3.06584 5.61896 3.15768H5.61915Z" fill="white"/>
</svg>
